<mxfile host="app.diagrams.net" modified="2024-01-26T15:26:53.823Z" agent="Mozilla/5.0 (Macintosh; Intel Mac OS X 10_15_7) AppleWebKit/537.36 (KHTML, like Gecko) Chrome/120.0.0.0 Safari/537.36" etag="6zUbfbMuC1BMWt_eA8xI" version="23.0.2" type="github">
  <diagram name="Page-1" id="B87wdh2XF9i1DDwBZvM7">
    <mxGraphModel dx="1306" dy="2029" grid="1" gridSize="10" guides="1" tooltips="1" connect="1" arrows="1" fold="1" page="1" pageScale="1" pageWidth="827" pageHeight="1169" math="0" shadow="0">
      <root>
        <mxCell id="0" />
        <mxCell id="1" parent="0" />
        <mxCell id="nxYUgtPUalUfN7vm7WeZ-3" value="" style="ellipse;whiteSpace=wrap;html=1;" vertex="1" parent="1">
          <mxGeometry x="20" y="-40" width="760" height="1040" as="geometry" />
        </mxCell>
        <mxCell id="nxYUgtPUalUfN7vm7WeZ-4" value="XYZ_Hotel" style="text;html=1;strokeColor=none;fillColor=none;align=center;verticalAlign=middle;whiteSpace=wrap;rounded=0;" vertex="1" parent="1">
          <mxGeometry x="460" y="130" width="60" height="30" as="geometry" />
        </mxCell>
        <mxCell id="nxYUgtPUalUfN7vm7WeZ-6" value="Reservation&lt;br&gt;&lt;br&gt;&lt;br&gt;&lt;br&gt;&lt;br&gt;&lt;br&gt;" style="ellipse;whiteSpace=wrap;html=1;" vertex="1" parent="1">
          <mxGeometry x="210" y="230" width="160" height="200" as="geometry" />
        </mxCell>
        <mxCell id="nxYUgtPUalUfN7vm7WeZ-7" value="ReservationController" style="rounded=1;whiteSpace=wrap;html=1;" vertex="1" parent="1">
          <mxGeometry x="230" y="340" width="120" height="60" as="geometry" />
        </mxCell>
        <mxCell id="nxYUgtPUalUfN7vm7WeZ-8" value="User&lt;br&gt;&lt;br&gt;&lt;br&gt;&lt;br&gt;&lt;br&gt;" style="ellipse;whiteSpace=wrap;html=1;" vertex="1" parent="1">
          <mxGeometry x="470" y="230" width="160" height="200" as="geometry" />
        </mxCell>
        <mxCell id="nxYUgtPUalUfN7vm7WeZ-9" value="UserController" style="rounded=1;whiteSpace=wrap;html=1;" vertex="1" parent="1">
          <mxGeometry x="490" y="340" width="120" height="60" as="geometry" />
        </mxCell>
        <mxCell id="nxYUgtPUalUfN7vm7WeZ-10" value="Payment&lt;br&gt;&lt;br&gt;&lt;br&gt;&lt;br&gt;&lt;br&gt;" style="ellipse;whiteSpace=wrap;html=1;" vertex="1" parent="1">
          <mxGeometry x="210" y="470" width="160" height="200" as="geometry" />
        </mxCell>
        <mxCell id="nxYUgtPUalUfN7vm7WeZ-11" value="PaymentController" style="rounded=1;whiteSpace=wrap;html=1;" vertex="1" parent="1">
          <mxGeometry x="230" y="580" width="120" height="60" as="geometry" />
        </mxCell>
        <mxCell id="nxYUgtPUalUfN7vm7WeZ-12" value="Wallet&lt;br&gt;&lt;br&gt;&lt;br&gt;&lt;br&gt;" style="ellipse;whiteSpace=wrap;html=1;" vertex="1" parent="1">
          <mxGeometry x="470" y="470" width="160" height="200" as="geometry" />
        </mxCell>
        <mxCell id="nxYUgtPUalUfN7vm7WeZ-13" value="WalletController" style="rounded=1;whiteSpace=wrap;html=1;" vertex="1" parent="1">
          <mxGeometry x="490" y="580" width="120" height="60" as="geometry" />
        </mxCell>
        <mxCell id="nxYUgtPUalUfN7vm7WeZ-14" value="Currency&lt;br&gt;&lt;br&gt;&lt;br&gt;&lt;br&gt;&lt;br&gt;" style="ellipse;whiteSpace=wrap;html=1;" vertex="1" parent="1">
          <mxGeometry x="470" y="700" width="160" height="200" as="geometry" />
        </mxCell>
        <mxCell id="nxYUgtPUalUfN7vm7WeZ-15" value="CurrencyController" style="rounded=1;whiteSpace=wrap;html=1;" vertex="1" parent="1">
          <mxGeometry x="490" y="810" width="120" height="60" as="geometry" />
        </mxCell>
        <mxCell id="nxYUgtPUalUfN7vm7WeZ-16" value="Room" style="ellipse;whiteSpace=wrap;html=1;" vertex="1" parent="1">
          <mxGeometry x="210" width="160" height="200" as="geometry" />
        </mxCell>
        <mxCell id="nxYUgtPUalUfN7vm7WeZ-18" value="" style="endArrow=classic;html=1;rounded=0;exitX=1;exitY=0.5;exitDx=0;exitDy=0;" edge="1" parent="1" source="nxYUgtPUalUfN7vm7WeZ-6" target="nxYUgtPUalUfN7vm7WeZ-8">
          <mxGeometry width="50" height="50" relative="1" as="geometry">
            <mxPoint x="370" y="360" as="sourcePoint" />
            <mxPoint x="420" y="310" as="targetPoint" />
          </mxGeometry>
        </mxCell>
        <mxCell id="nxYUgtPUalUfN7vm7WeZ-19" value="" style="endArrow=classic;html=1;rounded=0;exitX=0;exitY=0;exitDx=0;exitDy=0;entryX=0;entryY=1;entryDx=0;entryDy=0;" edge="1" parent="1" source="nxYUgtPUalUfN7vm7WeZ-12" target="nxYUgtPUalUfN7vm7WeZ-8">
          <mxGeometry width="50" height="50" relative="1" as="geometry">
            <mxPoint x="370" y="360" as="sourcePoint" />
            <mxPoint x="420" y="310" as="targetPoint" />
          </mxGeometry>
        </mxCell>
        <mxCell id="nxYUgtPUalUfN7vm7WeZ-20" value="" style="endArrow=classic;html=1;rounded=0;exitX=1;exitY=0.5;exitDx=0;exitDy=0;entryX=0;entryY=0.5;entryDx=0;entryDy=0;" edge="1" parent="1" source="nxYUgtPUalUfN7vm7WeZ-10" target="nxYUgtPUalUfN7vm7WeZ-12">
          <mxGeometry width="50" height="50" relative="1" as="geometry">
            <mxPoint x="370" y="360" as="sourcePoint" />
            <mxPoint x="420" y="310" as="targetPoint" />
          </mxGeometry>
        </mxCell>
        <mxCell id="nxYUgtPUalUfN7vm7WeZ-21" value="" style="endArrow=classic;html=1;rounded=0;exitX=1;exitY=0;exitDx=0;exitDy=0;entryX=1;entryY=1;entryDx=0;entryDy=0;" edge="1" parent="1" source="nxYUgtPUalUfN7vm7WeZ-10" target="nxYUgtPUalUfN7vm7WeZ-7">
          <mxGeometry width="50" height="50" relative="1" as="geometry">
            <mxPoint x="370" y="360" as="sourcePoint" />
            <mxPoint x="420" y="310" as="targetPoint" />
          </mxGeometry>
        </mxCell>
        <mxCell id="nxYUgtPUalUfN7vm7WeZ-22" value="" style="endArrow=classic;html=1;rounded=0;entryX=0;entryY=0;entryDx=0;entryDy=0;exitX=1;exitY=1;exitDx=0;exitDy=0;" edge="1" parent="1" source="nxYUgtPUalUfN7vm7WeZ-10" target="nxYUgtPUalUfN7vm7WeZ-14">
          <mxGeometry width="50" height="50" relative="1" as="geometry">
            <mxPoint x="370" y="360" as="sourcePoint" />
            <mxPoint x="420" y="310" as="targetPoint" />
          </mxGeometry>
        </mxCell>
        <mxCell id="nxYUgtPUalUfN7vm7WeZ-23" value="" style="endArrow=classic;html=1;rounded=0;exitX=1;exitY=1;exitDx=0;exitDy=0;entryX=1;entryY=0;entryDx=0;entryDy=0;" edge="1" parent="1" source="nxYUgtPUalUfN7vm7WeZ-16" target="nxYUgtPUalUfN7vm7WeZ-6">
          <mxGeometry width="50" height="50" relative="1" as="geometry">
            <mxPoint x="370" y="390" as="sourcePoint" />
            <mxPoint x="420" y="340" as="targetPoint" />
          </mxGeometry>
        </mxCell>
      </root>
    </mxGraphModel>
  </diagram>
</mxfile>
